<?xml version="1.0" encoding="utf-8"?>
<svg version="1.1" id="Layer_1" xmlns="http://www.w3.org/2000/svg" xmlns:xlink="http://www.w3.org/1999/xlink" x="0px" y="0px" viewBox="0 0 2618 479" enable-background="new 0 0 2618 479" xml:space="preserve">
	<path fill="#222222" d="M2589,230.676c-558.772,0.575-367.894,7.594-791.95-37.827c-44.667,42.752-34.882,37.541-42.646,37.86
	c-11.06-54.451-87.632-55.301-97.841,1.595c-1.063,0-122.301,0.638-123.152-0.957c-7.444-13.932-23.184-21.802-38.605-22.971
	c5.211-16.165-7.87-30.522-26.906-27.332c-1.808,1.702-3.297,44.56-97.947,49.133c-3.722-19.036-8.295-22.865-13.825-31.586
	c34.138-30.416,110.496-58.492,104.434-93.906c-3.084-15.633-17.548-18.824-24.886-16.59c-34.883,7.763-58.492,74.87-86.036,104.328
	c-9.146-6.275-19.143-11.379-30.097-13.4c2.021-89.333,47.644-96.777,48.708-97.522c3.19-24.354-17.335-29.99-28.076-26.375
	c0.425-24.567-24.141-44.454-32.543-40.519c-17.016,5.743-27.119,23.716-28.076,41.051c-16.165-5.955-31.586,8.827-26.906,26.162
	c7.444,2.552,14.889,5.636,20.419,11.379c19.781,20.1,27.119,57.322,28.076,85.93c-10.954,1.595-21.376,6.168-29.99,13.187
	c-14.57-12.655-31.054-49.24-55.833-81.144c-32.862-44.56-71.466-17.229-48.282,16.378c17.122,24.886,73.381,48.708,97.309,71.466
	c-7.657,8.614-12.23,19.675-14.038,30.948c-36.159-1.489-89.971-12.868-97.522-48.495c-24.354-3.935-30.841,15.527-26.906,27.119
	c-16.058,0.638-31.905,9.678-39.562,23.929c-130.596,0-121.769,0.106-124.109-0.425c-1.17-3.616-1.701-7.551-3.19-11.06
	c-18.292-45.836-84.866-38.711-94.331,7.763c0.106,12.762-33.074-29.246-43.816-35.627c-10.848,0.851,18.292-2.233-357.226,37.435
	c-5.849,0.744,20.738,0.319-433.797,0.425L29,232.518v13.506c504.519-0.213,293.523-11.486,792.512,41.051
	c13.719-13.613,27.651-27.119,41.37-40.838c1.914,0.106,1.489,2.552,2.021,3.829c10.209,49.771,84.335,52.536,96.458-0.851
	c0-2.659-7.551-1.808,125.704-1.702c9.784,12.975,23.929,22.121,38.392,21.163c-2.978,21.163,7.87,30.628,26.906,28.289
	c8.72-35.84,61.47-48.601,98.266-48.708c1.914,10.741,6.168,21.27,13.4,29.565c-17.654,19.249-88.695,48.389-101.989,80.187
	c-4.573,10.209-3.084,25.736,12.443,30.522c35.521,10.741,68.595-75.72,96.033-103.903c8.827,7.125,19.249,12.124,30.522,13.825
	c-0.425,23.609-6.913,56.471-18.93,74.976c-13.081,20.951-25.63,20.525-29.671,23.078c-3.935,19.462,10.635,32.011,27.119,26.906
	c1.17,19.036,13.613,38.924,30.629,41.476c16.059-2.659,29.884-23.822,29.778-41.263c8.508,2.659,18.398-0.106,24.141-6.913
	c4.679-5.743,4.573-13.506,4.254-20.525c-10.635-3.297-18.079-4.998-28.501-19.887c-20.844-32.117-19.462-69.233-21.163-77.954
	c11.06-2.021,21.908-6.381,30.309-13.932c21.695,16.909,55.727,105.924,91.46,104.328c20.844-2.021,22.014-19.675,19.355-27.97
	c-10.528-32.862-83.696-62.427-103.584-83.059c6.594-8.721,11.486-18.611,13.187-29.459c36.478,0.106,91.247,12.549,97.947,48.601
	c21.589,3.51,31.692-11.805,27.438-27.863c17.654-0.851,32.224-11.06,38.498-21.801c41.157,0.213,82.42-0.106,123.577,0.213
	c8.189,50.622,84.335,58.917,97.841-1.808c42.327,39.562,38.498,42.008,45.411,41.051c488.535-51.425,295.095-40.086,788.866-40.531
	V230.676z M1327.307,266.23c-14.251,9.465-36.903,5.53-46.049-12.124c-18.505-38.498,33.925-66.787,56.471-32.436
	C1346.875,235.389,1342.941,256.233,1327.307,266.23z" />
</svg>
