<svg version="1.1" id="Capa_1" xmlns="http://www.w3.org/2000/svg" xmlns:xlink="http://www.w3.org/1999/xlink" x="0px" y="0px"
	 width="382.047px" height="382.048px" viewBox="0 0 382.047 382.048" style="enable-background:new 0 0 382.047 382.048;"
	 xml:space="preserve">
<g>
	<path id="arrow" d="M158.507,303.093c-6.12-6.12-12.24-11.628-18.972-17.136c0.612-23.868-0.612-48.348-1.836-72.216
		c-1.224-27.541-4.284-55.692-6.12-83.232c-1.224-19.584-0.612-40.392-3.672-59.364c5.508,0.612,11.016,0.612,16.524,1.836
		c5.508,1.224,11.016-4.284,7.344-9.792c-11.628-18.36-18.972-36.72-22.644-58.14c-1.224-6.732-12.24-6.732-13.464,0
		c-1.836,9.792-4.284,20.196-7.344,29.376c-1.224,4.896-3.06,9.792-4.896,14.076c-1.224,2.448-1.224,6.12-1.836,8.568
		c0,0.612,0,0.612-0.612,1.224c-0.612,0-1.224,0-1.836,0c-5.508-0.612-6.732,7.956-1.224,9.18
		c6.732,1.836,13.464,2.448,20.196,2.448c-6.732,42.228,4.284,91.8,6.732,134.028c1.224,25.704,2.448,50.796,1.224,76.5
		c-1.224,0.611-2.448,2.447-3.06,3.672c-3.672,15.3-15.912,22.032-27.54,31.212c-4.284,3.672,1.224,11.016,6.12,7.956
		c8.568-5.508,16.524-10.404,23.256-17.748c-0.612,4.284-0.612,8.568-1.224,12.852c-10.404,9.792-20.808,20.196-29.988,31.212
		c-1.836,2.448,0.612,6.732,3.672,4.284c7.956-6.12,16.524-11.628,23.868-17.748c-1.224,9.181-3.06,17.748-4.896,26.928
		c-1.836,7.345,9.18,10.404,11.628,3.061c2.448-9.18,4.896-18.972,6.12-28.764c2.448,3.06,4.896,6.119,7.344,9.18
		c3.06,4.284,7.344,12.852,14.076,12.24c1.836,0,4.284-1.225,4.896-3.672c1.224-6.732-5.508-12.24-9.792-17.748
		c-4.284-6.12-9.18-11.628-14.076-17.748c0.612-6.732,1.224-13.464,1.836-20.196c4.284,3.672,8.568,7.956,12.852,12.24
		c3.06,3.06,11.016,11.016,14.688,4.284C169.523,312.272,162.179,306.765,158.507,303.093z"/>
</g>
</svg>